<svg width="73" height="73" viewBox="0 0 73 73" fill="none" xmlns="http://www.w3.org/2000/svg">
<path fill-rule="evenodd" clip-rule="evenodd" d="M25.4566 56.2456C14.886 43.787 24.5697 25.4622 10.84 9.5005C26.3852 6.8258 51.7888 15.6349 57.5262 31.4962H72.7813C71.7184 24.1356 67.9892 17.4863 62.8686 12.1387C48.4181 -2.95246 25.1243 -4.13374 10.84 9.5005C-1.93554 21.6955 -3.17672 41.6118 7.0434 56.4797C17.5602 71.7793 36.0179 77.8133 52.5755 67.6766C52.2615 69.6135 51.3689 71.4046 50.022 72.819C53.1942 72.6438 55.0705 72.6059 58.056 71.0424C65.4301 67.1813 71.9482 57.232 72.544 48.3645H58.5928C58.7154 52.6078 58.4019 56.5629 54.9643 60.6642C59.8232 43.6155 43.0167 30.2411 28.5236 24.8169C31.8704 26.9926 35.0019 29.4804 37.8788 32.2448C46.1257 39.0357 53.8831 48.1762 50.1975 56.5545C46.8282 64.2141 33.8145 66.0958 25.4566 56.2456Z" fill="#89BC2B"/>
</svg>
